<?xml version="1.0" encoding="utf-8"?>
<!-- Generator: Adobe Illustrator 24.3.0, SVG Export Plug-In . SVG Version: 6.00 Build 0)  -->
<svg version="1.1" id="Layer_1" xmlns="http://www.w3.org/2000/svg" xmlns:xlink="http://www.w3.org/1999/xlink" x="0px" y="0px"
	 viewBox="0 0 379.1 386" style="enable-background:new 0 0 379.1 386;" xml:space="preserve">
<style type="text/css">
	.st0{fill:#6364AC;}
	.st1{fill:#FDFDFE;}
	.st2{fill:#6464AD;}
</style>
<g>
	<path class="st0" d="M179.1,77c-1.2-4.2-2.3-8.3-3.5-12.4c-0.3-1.1-0.7-2.1-1.1-3.2c-0.3-0.9-1-1.5-2-1.5c-1,0-1.2-0.5-1.1-1.3
		c0-0.3,0-0.6,0-1c-0.1-0.7,0.2-0.9,0.9-0.9c3.3,0,6.6,0,9.8,0c0.7,0,0.9,0.3,0.9,0.9c0,0.3,0,0.6,0,1c0.1,1-0.3,1.2-1.2,1.2
		c-1.5,0-2,0.5-1.6,1.9c1.3,5,2.7,10,4.2,15.3c0.8-2.3,1.5-4.2,2.1-6.1c0.8-2.3,1.6-4.6,2.4-6.9c0.7-2.1-0.6-4.1-2.8-4.2
		c-0.8,0-1.1-0.3-1-1.1c0-0.3,0-0.6,0-1c-0.1-0.8,0.2-1.1,1.1-1.1c3.2,0,6.5,0,9.7,0c0.9,0,1.3,0.2,1.2,1.1c0,0.3,0,0.6,0,1
		c0.1,0.8-0.3,1.1-1,1c-0.4,0-0.8,0-1.2,0.1c-0.9,0.1-1.3,0.6-1,1.5c1.5,5,3.1,10,4.8,15c0.5-1.8,1-3.6,1.6-5.4
		c0.8-2.8,1.7-5.6,2.5-8.4c0.6-2.1,0.2-2.6-2-2.7c-0.4,0-1.1,0.3-1.3-0.3c-0.2-0.8-0.1-1.7,0-2.5c0-0.3,0.5-0.2,0.7-0.2
		c3.2,0,6.3,0,9.5,0c0.6,0,0.9,0.2,0.8,0.8c0,0.2,0,0.5,0,0.7c0.1,1,0,1.6-1.3,1.6c-1.3,0-1.9,1.1-2.2,2.2c-0.7,2.3-1.4,4.7-2.1,7
		c-0.6,2.1-1.2,4.2-1.8,6.3c-0.5,1.5-0.5,1.5,1.1,1.5c19,0,38.1,0,57.1,0c13.7,0,27.4,0,41.2,0c1.9,0,1.7-0.3,1.7,1.6
		c0,32.2,0,64.4,0,96.6c0,1.8,0.2,1.6-1.6,1.6c-8.2,0-16.5,0-24.7,0c-1,0-1.3-0.3-1.3-1.3c0-5.8-0.3-11.7-1-17.5
		c-1.2-10.1-3.2-20-7.7-29.3c-6.1-12.6-16.1-20.2-29.6-23.5c-7-1.7-14.1-1.9-21.3-1.8c-0.6,0-0.9,0.2-0.8,0.8c0,0.2,0,0.5,0,0.7
		c0,55,0,109.9,0,164.9c0,3.3,0.3,6.5,0.9,9.8c1.2,6.2,3.5,8.5,9.7,9.7c4.1,0.8,8.2,1,12.3,1c6.8,0,13.6,0,20.4,0
		c1,0,1.3,0.2,1.3,1.2c0,8.3,0,16.6,0,25c0,1-0.3,1.2-1.3,1.2c-45.7,0-91.4,0-137.1,0c-1.1,0-1.3-0.3-1.3-1.3c0-8.3,0-16.6,0-24.8
		c0-1,0.2-1.3,1.3-1.3c8.2,0,16.4,0,24.6-0.1c3.5,0,6.9-0.5,10.3-1.4c3.7-0.9,6-3.2,6.9-7c1.1-4.3,1.4-8.7,1.4-13.2
		c0-54.7,0-109.3,0-164c0-1-0.2-1.3-1.3-1.3c-7.4-0.1-14.8,0.3-22,2.2c-14.1,3.7-23.9,12.3-29.6,25.7c-3.1,7.4-4.9,15.1-6,23
		c-1,7.1-1.4,14.3-1.6,21.5c0,0.8-0.3,0.9-1,0.9c-8.5,0-17,0-25.6,0c-0.8,0-1-0.3-1-1c0-3.8,0-7.7,0-11.5c0-28.6,0-57.2,0-85.8
		c0-1.2,0.3-1.5,1.5-1.5c32.9,0,65.7,0,98.6,0C178,77,178.5,77,179.1,77z"/>
	<path class="st1" d="M191.2,69.9c0.6,2.1,1.3,4.3,1.9,6.4c0.2,0.5,0,0.7-0.5,0.7c-1.1,0-2.2,0-3.4,0c-0.5,0-0.7-0.1-0.5-0.6
		c0.7-2.2,1.5-4.3,2.2-6.5C191,69.9,191.1,69.9,191.2,69.9z"/>
</g>
<g>
	<g>
		<path class="st2" d="M74.3,8.8c-2.3,1.4-4.7,2.5-7.2,3.3c-2.3,0.8-4.7,1.4-7.2,1.8c-2.4,0.4-4.8,0.7-7.2,0.8
			c-2.4,0.2-4.8,0-7.2-0.4c-2.4-0.6-4.8-1.3-7.2-2.1c-1.2-0.4-2.4-0.8-3.6-1.1c-1.1-0.3-2.3-0.5-3.5-0.6c-2.2-0.2-4.4,0.3-6.3,1.3
			c-0.5,0.2-0.9,0.5-1.4,0.8c-0.4,0.3-0.8,0.7-1.2,1c-0.4,0.4-0.8,0.8-1.1,1.2c-0.4,0.4-0.7,0.8-1,1.3c-0.6,0.9-1.1,1.7-1.5,2.7
			c-0.4,1-0.8,1.8-1.1,2.7c-0.7,1.6-1.2,3.3-1.5,5.1C16.1,27,16,27.4,16,27.9c0,0.4-0.1,0.8-0.1,1.3c0,0.8,0,1.7,0.1,2.5
			c0,0.7,0.1,2.1,0.1,3.2s0,2.4,0,3.6c-0.1,2.4-0.4,4.8-0.7,7.2C15,48,14.6,50.4,14,52.8c-0.6,2.4-1.2,4.8-2,7.2
			c-0.8,2.5-1.9,4.9-3.1,7.2c-0.2,0.4-0.7,0.6-1.2,0.3c-0.1-0.1-0.3-0.2-0.3-0.3c-1.2-2.3-2.3-4.7-3.1-7.2c-0.8-2.4-1.5-4.7-2.1-7.2
			c-0.6-2.4-1-4.8-1.4-7.2c-0.4-2.4-0.6-4.8-0.7-7.2C0,37.2,0,36,0.1,34.8s0.1-2.2,0.2-4c0.2-1.6,0.4-3.1,0.9-4.6
			c0.2-0.8,0.5-1.5,0.8-2.2c0.3-0.7,0.6-1.5,0.9-2.2c0.6-1.4,1.4-2.7,2.2-4C5.5,17.2,6,16.6,6.5,16c0.5-0.6,1-1.1,1.6-1.7
			c2.2-2,4.7-3.7,7.5-4.8c2.6-1.1,5.2-1.9,7.9-2.5C24,7,24.7,6.8,25.3,6.7c0.6-0.1,1.3-0.3,1.9-0.4c1.3-0.2,2.6-0.5,3.9-0.6
			s2.5-0.4,3.7-0.7s2.4-0.7,3.6-1.1c2.4-0.8,4.7-1.6,7.2-2.1c2.4-0.5,4.8-0.6,7.2-0.4c2.4,0.1,4.8,0.4,7.2,0.8
			c2.4,0.4,4.8,1.1,7.2,1.8C69.6,4.9,72,6,74.3,7.3c0.4,0.3,0.5,0.8,0.3,1.2c0,0,0,0,0,0C74.5,8.6,74.4,8.7,74.3,8.8z"/>
		<path class="st2" d="M307.6,370.3c2.4-1.4,5-2.5,7.7-3.3c2.5-0.8,5.1-1.4,7.7-1.8c2.6-0.4,5.1-0.7,7.7-0.8c2.6-0.2,5.2,0,7.7,0.4
			c2.6,0.6,5.2,1.3,7.7,2.1l0.9,0.3c0.3,0.1,0.5,0.2,0.8,0.2s0.6,0.2,0.9,0.2s0.6,0.1,0.9,0.1c0.6,0.1,1.2,0.1,1.8,0.1
			c0.6,0,1.2-0.1,1.7-0.2c2.3-0.5,4.4-1.6,6.1-3.2c1.7-1.6,2.9-3.6,3.6-5.8c0.7-2,1-4.1,1.1-6.3c0.1-1.9,0.1-3.8-0.1-5.7
			c-0.7-5.1-1-10.3-0.9-15.4c0.1-2.6,0.4-5.1,0.7-7.7s0.8-5.1,1.4-7.7s1.2-5.1,2.1-7.7c0.8-2.7,1.9-5.2,3.1-7.7
			c0.2-0.4,0.7-0.6,1.1-0.4c0,0,0,0,0,0c0.2,0.1,0.3,0.2,0.4,0.4c1.2,2.5,2.3,5.1,3.1,7.7c0.8,2.6,1.5,5.2,2.1,7.7s1,5.2,1.4,7.7
			s0.6,5.1,0.7,7.7c0.1,5.2-0.2,10.4-0.9,15.5c-0.3,3.3-1.1,6.5-2.6,9.5c-0.4,0.7-0.8,1.4-1.2,2.1l-1.5,1.9c-0.5,0.6-1,1.2-1.6,1.8
			c-0.5,0.6-1.1,1.1-1.7,1.6c-2.3,1.9-4.7,3.6-7.3,5c-2.5,1.4-5,2.6-7.6,3.7c-0.7,0.2-1.3,0.5-2,0.8s-1.4,0.5-2,0.8
			c-0.4,0.1-0.7,0.3-1.1,0.4l-1.1,0.3l-2.1,0.6c-2.5,0.9-5.1,1.6-7.7,2.1c-2.5,0.5-5.1,0.6-7.7,0.4c-2.6-0.1-5.2-0.4-7.7-0.8
			c-2.6-0.4-5.2-1-7.7-1.8c-2.7-0.8-5.3-1.9-7.7-3.3c-0.4-0.2-0.6-0.8-0.3-1.2c0,0,0,0,0,0C307.4,370.5,307.5,370.4,307.6,370.3z"/>
		<path class="st2" d="M370.3,67.1c-1.4-2.2-2.5-4.5-3.3-7c-0.8-2.3-1.4-4.6-1.8-7c-0.4-2.3-0.7-4.7-0.8-7c-0.2-2.3-0.1-4.7,0.4-7
			c0.6-2.3,1.3-4.7,2.1-6.9c0.8-2,1.1-4.1,0.8-6.2c-0.4-2.1-1.4-4-2.8-5.6c-1.5-1.5-3.2-2.7-5.2-3.4c-1.9-0.6-3.8-1.1-5.8-1.3
			c-1.7-0.2-3.5-0.3-5.2-0.3c-0.4,0-0.8,0.1-1.2,0.1l-1.4,0.2c-1.2,0.1-2.3,0.3-3.5,0.4c-2.3,0.2-4.7,0.2-7,0.2
			c-2.3-0.1-4.7-0.4-7-0.7c-2.3-0.3-4.7-0.8-7-1.4c-2.4-0.6-4.7-1.3-7-2.1c-2.4-0.8-4.8-1.9-7-3.1c-0.4-0.2-0.6-0.8-0.3-1.2
			c0.1-0.1,0.2-0.2,0.3-0.3c2.2-1.2,4.6-2.3,7-3.1c2.3-0.8,4.6-1.5,7-2.1c2.3-0.6,4.7-1,7-1.4c2.3-0.4,4.7-0.6,7-0.7
			c2.3-0.1,4.7-0.1,7,0.1c1.2,0.1,2.3,0.2,3.5,0.4c0.5,0,1.4,0.2,2.1,0.3c0.8,0.1,1.5,0.2,2.2,0.4c2.9,0.6,5.7,1.7,8.3,3.3
			c0.6,0.4,1.2,0.9,1.8,1.3c0.6,0.5,1.1,1,1.6,1.5c0.5,0.5,1,1,1.5,1.6c0.5,0.6,0.9,1.1,1.3,1.7c1.5,2.2,2.9,4.5,4.1,7
			c1.2,2.3,2.2,4.6,3.2,7s2.1,4.8,2.9,7.6l1.2,3.5c0.4,1.2,0.7,2.3,1,3.5c0.5,2.3,0.6,4.7,0.4,7c-0.1,2.3-0.4,4.7-0.8,7
			c-0.4,2.4-1.1,4.7-1.8,7c-0.8,2.5-1.9,4.8-3.3,7c-0.3,0.4-0.8,0.5-1.2,0.3c0,0,0,0,0,0C370.5,67.3,370.4,67.2,370.3,67.1z"/>
		<path class="st2" d="M8.8,300.4c1.4,2.5,2.5,5.2,3.3,7.9c0.8,2.6,1.4,5.2,1.9,7.9c0.4,2.6,0.7,5.3,0.8,7.9c0.2,2.6,0,5.3-0.4,7.9
			c-0.6,2.7-1.3,5.3-2.1,7.9c-0.4,1.3-0.8,2.6-1.1,4c-0.2,0.7-0.3,1.3-0.4,2c0,0.3-0.1,0.7-0.1,1s-0.1,0.6-0.1,0.9
			c-0.2,2.4,0.4,4.8,1.5,6.9c1.2,2.1,2.8,3.8,4.8,5.1c1.9,1.1,3.9,2,6,2.6c1.8,0.6,3.8,1,5.7,1.2c0.5,0,0.9,0,1.4,0h0.7
			c0.2,0,0.5-0.1,0.7-0.1l3.5-0.3c2.6-0.2,5.3-0.2,7.9-0.1c2.6,0.1,5.3,0.3,7.9,0.7c2.6,0.3,5.3,0.8,7.9,1.4s5.3,1.2,7.9,2.1
			c2.7,0.8,5.4,1.9,7.9,3.1c0.4,0.2,0.6,0.7,0.4,1.1c-0.1,0.2-0.2,0.3-0.4,0.4c-2.6,1.2-5.2,2.3-7.9,3.1c-2.6,0.8-5.3,1.5-7.9,2.1
			s-5.3,1-7.9,1.4s-5.3,0.6-7.9,0.7c-2.6,0.1-5.3,0.1-7.9-0.1l-2-0.2l-1.2-0.1l-1.3-0.2c-0.4,0-0.8-0.1-1.3-0.2l-1.3-0.3
			c-0.8-0.2-1.7-0.4-2.5-0.7c-3.2-1-6.3-2.6-8.8-4.8c-0.3-0.3-0.6-0.5-0.9-0.8l-0.9-0.9c-0.6-0.6-1.1-1.2-1.6-1.9
			c-0.5-0.7-1-1.3-1.4-2l-1.2-2.1c-1.3-2.7-2.4-5.6-3.2-8.5c-0.2-0.7-0.4-1.4-0.5-2.1s-0.3-1.4-0.5-2.1c-0.2-1.4-0.5-2.8-0.7-4.3
			l-0.3-2.1c-0.1-0.7-0.2-1.3-0.4-2c-0.3-1.3-0.7-2.6-1.1-4c-0.8-2.6-1.5-5.2-2.1-7.9c-0.5-2.6-0.6-5.3-0.4-7.9
			c0.1-2.6,0.4-5.3,0.8-7.9c0.4-2.7,1-5.3,1.8-7.9c0.8-2.7,1.9-5.4,3.3-7.9c0.2-0.4,0.8-0.6,1.2-0.3C8.7,300.1,8.8,300.3,8.8,300.4z
			"/>
	</g>
	<path class="st2" d="M128.3,7.3c2.8-1.4,5.7-2.5,8.7-3.3c2.9-0.8,5.8-1.4,8.7-1.8c2.9-0.4,5.8-0.7,8.7-0.8c2.9-0.2,5.9,0,8.8,0.4
		c5.8,1,11.6,3.4,17.5,3.9c5.9,0.4,11.8-0.2,17.5-1.7c2.9-0.7,5.8-1.4,8.7-1.9s5.8-0.8,8.7-1.1c5.8-0.7,11.6-1,17.5-0.9
		c2.9,0.1,5.8,0.3,8.7,0.7c2.9,0.3,5.8,0.8,8.7,1.4s5.8,1.2,8.7,2.1c3,0.8,5.9,1.9,8.7,3.1c0.4,0.2,0.6,0.7,0.4,1.1c0,0,0,0,0,0
		c-0.1,0.2-0.2,0.3-0.4,0.4c-2.8,1.2-5.8,2.3-8.7,3.1c-2.9,0.8-5.8,1.5-8.7,2.1s-5.8,1-8.7,1.4s-5.8,0.6-8.7,0.7
		c-5.8,0.1-11.7-0.2-17.5-0.9c-2.9-0.3-5.8-0.5-8.7-1s-5.8-1.2-8.7-1.9c-5.7-1.5-11.6-2.1-17.5-1.7c-5.8,0.5-11.7,2.9-17.5,3.8
		c-2.9,0.5-5.8,0.6-8.8,0.4c-2.9-0.1-5.8-0.4-8.7-0.8c-2.9-0.4-5.9-1-8.7-1.8c-3-0.8-5.9-1.9-8.7-3.3c-0.4-0.2-0.6-0.7-0.4-1.1
		C128,7.6,128.1,7.4,128.3,7.3z"/>
	<path class="st2" d="M257.7,371.8c-2.8,1.4-5.7,2.5-8.8,3.3c-2.9,0.8-5.8,1.4-8.7,1.8c-2.9,0.4-5.8,0.7-8.7,0.8
		c-2.9,0.2-5.9,0-8.7-0.4c-5.8-1-11.7-3.4-17.5-3.9c-5.9-0.4-11.8,0.2-17.5,1.7c-2.9,0.7-5.8,1.4-8.7,1.9s-5.8,0.8-8.7,1
		c-5.8,0.7-11.6,1-17.5,0.9c-2.9-0.1-5.8-0.4-8.7-0.7s-5.8-0.8-8.7-1.4s-5.8-1.2-8.7-2.1c-3-0.8-5.9-1.9-8.8-3.1
		c-0.4-0.2-0.6-0.7-0.4-1.1c0.1-0.2,0.2-0.3,0.4-0.4c2.8-1.2,5.8-2.3,8.8-3.1c2.9-0.8,5.8-1.5,8.7-2.1s5.8-1,8.7-1.4
		s5.8-0.6,8.7-0.7c5.8-0.1,11.7,0.2,17.5,0.9c2.9,0.3,5.8,0.5,8.7,1.1s5.8,1.2,8.7,1.9c5.7,1.5,11.6,2.1,17.5,1.7
		c5.8-0.5,11.6-2.9,17.5-3.9c2.9-0.5,5.8-0.6,8.7-0.4c2.9,0.1,5.8,0.4,8.7,0.8c2.9,0.4,5.9,1,8.7,1.8c3,0.8,5.9,1.9,8.8,3.3
		c0.4,0.2,0.6,0.7,0.4,1.1C258,371.6,257.8,371.7,257.7,371.8z"/>
	<path class="st2" d="M7.3,246.1c-1.4-2.8-2.5-5.7-3.3-8.7c-0.8-2.9-1.4-5.8-1.8-8.7c-0.4-2.9-0.7-5.8-0.8-8.8
		c-0.2-2.9-0.1-5.9,0.4-8.7c1-5.8,3.4-11.6,3.8-17.5c0.4-5.9-0.2-11.8-1.7-17.5c-0.7-2.9-1.4-5.8-1.9-8.7s-0.8-5.8-1.1-8.7
		c-0.7-5.8-1-11.6-0.9-17.5c0.1-2.9,0.3-5.8,0.7-8.7s0.8-5.8,1.4-8.7s1.2-5.8,2.1-8.7c0.8-3,1.9-5.9,3.1-8.7
		c0.2-0.4,0.7-0.6,1.1-0.4c0.2,0.1,0.3,0.2,0.4,0.4c1.2,2.8,2.3,5.7,3.1,8.7c0.8,2.9,1.5,5.8,2.1,8.7s1,5.8,1.4,8.7s0.6,5.8,0.7,8.7
		c0.1,5.8-0.2,11.7-0.9,17.5c-0.3,2.9-0.5,5.8-1,8.7c-0.5,2.9-1.2,5.8-1.9,8.7c-1.5,5.7-2.1,11.6-1.7,17.5
		c0.5,5.8,2.9,11.7,3.8,17.5c0.5,2.9,0.6,5.8,0.4,8.7c-0.1,2.9-0.4,5.8-0.8,8.8c-0.4,2.9-1,5.9-1.8,8.7c-0.8,3-1.9,5.9-3.3,8.7
		c-0.2,0.4-0.7,0.6-1.1,0.4c0,0,0,0,0,0C7.5,246.4,7.4,246.2,7.3,246.1z"/>
	<path class="st2" d="M371.8,111.2c1.4,2.8,2.5,5.7,3.3,8.7c0.8,2.9,1.4,5.8,1.8,8.7c0.4,2.9,0.7,5.8,0.8,8.7c0.2,2.9,0,5.9-0.4,8.8
		c-1,5.8-3.4,11.6-3.9,17.5c-0.4,5.9,0.2,11.8,1.7,17.5c0.7,2.9,1.4,5.8,1.9,8.7s0.8,5.8,1,8.7c0.7,5.8,1,11.6,0.9,17.5
		c-0.1,2.9-0.4,5.8-0.7,8.7c-0.4,2.9-0.8,5.8-1.4,8.7c-0.6,2.9-1.2,5.8-2.1,8.7c-0.8,3-1.9,5.9-3.1,8.7c-0.2,0.4-0.7,0.6-1.1,0.4
		c0,0,0,0,0,0c-0.2-0.1-0.3-0.2-0.4-0.4c-1.2-2.8-2.3-5.8-3.1-8.7c-0.8-2.9-1.5-5.8-2.1-8.7s-1-5.8-1.4-8.7s-0.6-5.8-0.7-8.7
		c-0.1-5.8,0.2-11.7,0.9-17.5c0.3-2.9,0.5-5.8,1.1-8.7c0.5-2.9,1.2-5.8,1.9-8.7c1.5-5.7,2.1-11.6,1.7-17.5
		c-0.5-5.8-2.9-11.7-3.9-17.5c-0.5-2.9-0.6-5.8-0.4-8.8c0.1-2.9,0.4-5.8,0.8-8.7c0.4-2.9,1-5.9,1.8-8.7c0.8-3,1.9-5.9,3.3-8.7
		c0.2-0.4,0.7-0.6,1.1-0.4C371.6,110.9,371.7,111,371.8,111.2z"/>
</g>
</svg>
